<mxfile host="app.diagrams.net" modified="2023-05-25T13:34:34.371Z" agent="Mozilla/5.0 (Windows NT 10.0; Win64; x64) AppleWebKit/537.36 (KHTML, like Gecko) Chrome/113.0.0.0 Safari/537.36" version="21.2.1" etag="fXhHsGUIsSkC4aYz50Rt" type="github">
  <diagram name="PÃ¡gina-1" id="-mrIddXS0_jvO0A7E-xm">
    <mxGraphModel>
      <root>
        <mxCell id="0" />
        <mxCell id="1" parent="0" />
      </root>
    </mxGraphModel>
  </diagram>
</mxfile>
